{"title":"Yuki - Hardfucktales - One Of Sexiest Hardcore Porn Girls","uid":9867915,"size":447257179,"categoryP":"porn","categoryS":"movie_clips","magnet":"?xt=urn:btih:ec1e38786103a61cb5784e4bc923217748459c53&amp;dn=Yuki+-+Hardfucktales+-+One+Of+Sexiest+Hardcore+Porn+Girls&amp;tr=udp%3A%2F%2Ftracker.openbittorrent.com%3A80&amp;tr=udp%3A%2F%2Fopen.demonii.com%3A1337&amp;tr=udp%3A%2F%2Ftracker.coppersurfer.tk%3A6969&amp;tr=udp%3A%2F%2Fexodus.desync.com%3A6969","seeders":2,"leechers":1,"uploader":"athklym","files":-1,"time":1396381268,"description":" &lt;a href=&quot;http://bayimg.com/MaNffAaFE&quot; rel=&quot;nofollow&quot; target=&quot;_NEW&quot;&gt;http://bayimg.com/MaNffAaFE&lt;/a&gt;\nYuki_Hardfucktales_One_Of_Sexiest_Hardcore_Porn_Girls.mp4\nFormat : MPEG-4\nFormat profile : Base Media\nCodec ID : isom\nFile size : 427 MiB\nDuration : 1h 28mn\nOverall bit rate : 677 Kbps\nTagged date : UTC 2011-10-06 00:17:33\nWriting application : Lavf53.12.0\n\nVideo\nID : 1\nFormat : AVC\nFormat/Info : Advanced Video Codec\nFormat profile : &lt;a class=&quot;__cf_email__&quot; href=&quot;/cdn-cgi/l/email-protection&quot; data-cfemail=&quot;420a2b252a020e716c72&quot;&gt;[email&amp;#160;protected]&lt;/a&gt;&lt;script cf-hash='f9e31' type=&quot;text/javascript&quot;&gt;\n/* &lt;![CDATA[ */!function(){try{var t=&quot;currentScript&quot;in document?document.currentScript:function(){for(var t=document.getElementsByTagName(&quot;script&quot;),e=t.length;e--;)if(t[e].getAttribute(&quot;cf-hash&quot;))return t[e]}();if(t&amp;&amp;t.previousSibling){var e,r,n,i,c=t.previousSibling,a=c.getAttribute(&quot;data-cfemail&quot;);if(a){for(e=&quot;&quot;,r=parseInt(a.substr(0,2),16),n=2;a.length-n;n+=2)i=parseInt(a.substr(n,2),16)^r,e+=String.fromCharCode(i);e=document.createTextNode(e),c.parentNode.replaceChild(e,c)}}}catch(u){}}();/* ]]&gt; */&lt;/script&gt;\nFormat settings, CABAC : Yes\nFormat settings, ReFrames : 4 frames\nCodec ID : avc1\nCodec ID/Info : Advanced Video Coding\nDuration : 1h 28mn\nBit rate : 607 Kbps\nWidth : 768 pixels\nHeight : 432 pixels\nDisplay aspect ratio : 16:9\nFrame rate mode : Constant\nFrame rate : 25.000 fps\nColor space : YUV\nChroma subsampling : 4:2:0\nBit depth : 8 bits\nScan type : Progressive\nBits/(Pixel*Frame) : 0.073\nStream size : 382 MiB (90%)\nWriting library : x264 core 116 r2074 2641b9e\nEncoding settings : cabac=1 / ref=3 / deblock=1:0:0 / analyse=0x3:0x113 / me=umh / subme=7 / psy=0 / mixed_ref=1 / me_range=16 / chroma_me=1 / trellis=1 / 8x8dct=1 / cqm=0 / deadzone=21,11 / fast_pskip=1 / chroma_qp_offset=0 / threads=3 / sliced_threads=0 / nr=0 / decimate=1 / interlaced=0 / bluray_compat=0 / constrained_intra=0 / bframes=3 / b_pyramid=2 / b_adapt=2 / b_bias=0 / direct=3 / weightb=1 / open_gop=0 / weightp=2 / keyint=150 / keyint_min=5 / scenecut=40 / intra_refresh=0 / rc_lookahead=40 / rc=crf / mbtree=1 / crf=24.0 / qcomp=0.60 / qpmin=12 / qpmax=51 / qpstep=4 / vbv_maxrate=3000 / vbv_bufsize=6000 / crf_max=0.0 / nal_hrd=none / ip_ratio=1.40 / aq=1:1.00\n\nAudio\nID : 2\nFormat : AAC\nFormat/Info : Advanced Audio Codec\nFormat profile : LC\nCodec ID : 40\nDuration : 1h 28mn\nBit rate mode : Constant\nBit rate : 64.0 Kbps\nChannel count : 2 channels\nOriginal Channel count : 1 channel\nChannel positions : Front: C\nSampling rate : 48.0 KHz\nCompression mode : Lossy\nStream size : 40.3 MiB (9%)","torrent":{"xt":"urn:btih:ec1e38786103a61cb5784e4bc923217748459c53","amp;dn":"Yuki+-+Hardfucktales+-+One+Of+Sexiest+Hardcore+Porn+Girls","amp;tr":["udp%3A%2F%2Ftracker.openbittorrent.com%3A80","udp%3A%2F%2Fopen.demonii.com%3A1337","udp%3A%2F%2Ftracker.coppersurfer.tk%3A6969","udp%3A%2F%2Fexodus.desync.com%3A6969"],"infoHash":"ec1e38786103a61cb5784e4bc923217748459c53","infoHashBuffer":{"type":"Buffer","data":[236,30,56,120,97,3,166,28,181,120,78,75,201,35,33,119,72,69,156,83]},"announce":[],"urlList":[]}}